<svg width="20" height="20" viewBox="0 0 20 20" fill="none" xmlns="http://www.w3.org/2000/svg">
<path d="M8.40222 12.7689L5.62889 9.99555C5.52444 9.89185 5.39667 9.8363 5.24556 9.82889C5.09444 9.82148 4.96 9.87704 4.84222 9.99555C4.72444 10.1141 4.66519 10.2452 4.66444 10.3889C4.6637 10.5326 4.72296 10.6637 4.84222 10.7822L7.77333 13.7133C7.95259 13.8933 8.16185 13.9833 8.40111 13.9833C8.64037 13.9833 8.85 13.8933 9.03 13.7133L15.1156 7.62889C15.2193 7.52444 15.2748 7.39667 15.2822 7.24555C15.2896 7.09444 15.2341 6.96 15.1156 6.84222C14.997 6.72444 14.8659 6.66518 14.7222 6.66444C14.5785 6.6637 14.4474 6.72296 14.3289 6.84222L8.40222 12.7689ZM10.0033 20C8.62111 20 7.32111 19.7378 6.10333 19.2133C4.8863 18.6881 3.82741 17.9756 2.92667 17.0756C2.02593 16.1756 1.31296 15.1178 0.787778 13.9022C0.262593 12.6867 0 11.387 0 10.0033C0 8.61963 0.262593 7.31963 0.787778 6.10333C1.31222 4.8863 2.0237 3.82741 2.92222 2.92667C3.82074 2.02593 4.87889 1.31296 6.09667 0.787778C7.31445 0.262593 8.61444 0 9.99667 0C11.3789 0 12.6789 0.262593 13.8967 0.787778C15.1137 1.31222 16.1726 2.02407 17.0733 2.92333C17.9741 3.82259 18.687 4.88074 19.2122 6.09778C19.7374 7.31481 20 8.61444 20 9.99667C20 11.3789 19.7378 12.6789 19.2133 13.8967C18.6889 15.1144 17.9763 16.1733 17.0756 17.0733C16.1748 17.9733 15.117 18.6863 13.9022 19.2122C12.6874 19.7381 11.3878 20.0007 10.0033 20Z" fill="#523E95"/>
</svg>
