<svg width="86" height="304" viewBox="0 0 86 304" fill="none" xmlns="http://www.w3.org/2000/svg">
<path d="M61.447 13.0605C43.3882 -2.77138 17.3151 -3.61575 -11.8569 10.2107C-42.3112 24.7233 -72.2312 53.4845 -96.0069 91.1643C-119.047 126.741 -133.252 167.19 -137.467 209.217C-140.246 246.158 -132.125 275.025 -113.799 290.751C-95.4726 306.477 -69.72 307.48 -40.4946 293.601C-10.0404 279.141 19.8796 250.433 43.6553 212.753C66.7024 177.164 80.8917 136.692 85.0624 94.6472C88.1613 57.759 79.5593 28.8395 61.447 13.0605ZM34.7328 55.912C47.7693 67.2582 53.219 88.209 50.0133 114.859C45.9131 142.545 35.8763 169.047 20.5742 192.594C4.54564 217.766 -14.8489 237.556 -34.4572 248.269C-55.2409 259.615 -73.8875 259.615 -86.924 248.269C-99.9606 236.923 -105.41 215.972 -102.151 189.322C-98.177 161.547 -88.1908 134.944 -72.8723 111.323C-56.8437 86.1508 -37.4492 66.4138 -17.7875 55.6481C2.94278 44.2492 21.5893 44.2492 34.7328 55.912Z" fill="#BA68C8"/>
</svg>
