<svg width="110" height="304" viewBox="0 0 110 304" fill="none" xmlns="http://www.w3.org/2000/svg">
<path d="M24.2361 13.0605C42.2949 -2.77138 68.368 -3.61575 97.54 10.2107C127.994 24.7233 157.914 53.4845 181.69 91.1643C204.73 126.741 218.936 167.19 223.151 209.217C225.929 246.158 217.808 275.025 199.482 290.751C181.156 306.477 155.403 307.48 126.178 293.601C95.7235 279.141 65.8035 250.433 42.0278 212.753C18.9807 177.164 4.7914 136.692 0.620667 94.6472C-2.4782 57.759 6.12379 28.8395 24.2361 13.0605ZM50.9503 55.912C37.9138 67.2582 32.4641 88.209 35.6698 114.859C39.7701 142.545 49.8068 169.047 65.1089 192.594C81.1375 217.766 100.532 237.556 120.14 248.269C140.924 259.615 159.571 259.615 172.607 248.269C185.644 236.923 191.093 215.972 187.834 189.322C183.86 161.547 173.874 134.944 158.555 111.323C142.527 86.1508 123.132 66.4138 103.471 55.6481C82.7403 44.2492 64.0938 44.2492 50.9503 55.912Z" fill="#BA68C8"/>
</svg>
