<svg width="101" height="49" viewBox="0 0 101 49" fill="none" xmlns="http://www.w3.org/2000/svg">
<circle cx="20.5" cy="28.5" r="20.5" fill="#523E95"/>
<path d="M11.3011 39V35.392L21.983 22.1676V22.0114H11.6705V17.1818H29.2699V21.1165L19.2415 34.0142V34.1705H29.6392V39H11.3011Z" fill="white"/>
<path d="M59.9205 34V32.5568L64.1932 27.267V27.2045H60.0682V25.2727H67.108V26.8466L63.0966 32.0057V32.0682H67.2557V34H59.9205ZM69.1065 34V25.2727H71.527V34H69.1065ZM70.3224 24.1477C69.9626 24.1477 69.6539 24.0284 69.3963 23.7898C69.1425 23.5473 69.0156 23.2576 69.0156 22.9205C69.0156 22.5871 69.1425 22.3011 69.3963 22.0625C69.6539 21.8201 69.9626 21.6989 70.3224 21.6989C70.6823 21.6989 70.9891 21.8201 71.2429 22.0625C71.5005 22.3011 71.6293 22.5871 71.6293 22.9205C71.6293 23.2576 71.5005 23.5473 71.2429 23.7898C70.9891 24.0284 70.6823 24.1477 70.3224 24.1477ZM73.5114 34V22.3636H78.1023C78.9848 22.3636 79.7367 22.5322 80.358 22.8693C80.9792 23.2027 81.4527 23.6667 81.7784 24.2614C82.108 24.8523 82.2727 25.5341 82.2727 26.3068C82.2727 27.0795 82.1061 27.7614 81.7727 28.3523C81.4394 28.9432 80.9564 29.4034 80.3239 29.733C79.6951 30.0625 78.9337 30.2273 78.0398 30.2273H75.1136V28.2557H77.642C78.1155 28.2557 78.5057 28.1742 78.8125 28.0114C79.1231 27.8447 79.3542 27.6155 79.5057 27.3239C79.661 27.0284 79.7386 26.6894 79.7386 26.3068C79.7386 25.9205 79.661 25.5833 79.5057 25.2955C79.3542 25.0038 79.1231 24.7784 78.8125 24.6193C78.5019 24.4564 78.108 24.375 77.6307 24.375H75.9716V34H73.5114ZM86.0795 34.1648C85.5227 34.1648 85.0265 34.0682 84.5909 33.875C84.1553 33.678 83.8106 33.3883 83.5568 33.0057C83.3068 32.6193 83.1818 32.1383 83.1818 31.5625C83.1818 31.0777 83.2708 30.6705 83.4489 30.3409C83.6269 30.0114 83.8693 29.7462 84.1761 29.5455C84.483 29.3447 84.8314 29.1932 85.2216 29.0909C85.6155 28.9886 86.0284 28.9167 86.4602 28.875C86.9678 28.822 87.3769 28.7727 87.6875 28.7273C87.9981 28.678 88.2235 28.6061 88.3636 28.5114C88.5038 28.4167 88.5739 28.2765 88.5739 28.0909V28.0568C88.5739 27.697 88.4602 27.4186 88.233 27.2216C88.0095 27.0246 87.6913 26.9261 87.2784 26.9261C86.8428 26.9261 86.4962 27.0227 86.2386 27.2159C85.9811 27.4053 85.8106 27.6439 85.7273 27.9318L83.4886 27.75C83.6023 27.2197 83.8258 26.7614 84.1591 26.375C84.4924 25.9848 84.9223 25.6856 85.4489 25.4773C85.9792 25.2652 86.5928 25.1591 87.2898 25.1591C87.7746 25.1591 88.2386 25.2159 88.6818 25.3295C89.1288 25.4432 89.5246 25.6193 89.8693 25.858C90.2178 26.0966 90.4924 26.4034 90.6932 26.7784C90.8939 27.1496 90.9943 27.5947 90.9943 28.1136V34H88.6989V32.7898H88.6307C88.4905 33.0625 88.303 33.303 88.0682 33.5114C87.8333 33.7159 87.5511 33.8769 87.2216 33.9943C86.892 34.108 86.5114 34.1648 86.0795 34.1648ZM86.7727 32.4943C87.1288 32.4943 87.4432 32.4242 87.7159 32.2841C87.9886 32.1402 88.2027 31.947 88.358 31.7045C88.5133 31.4621 88.5909 31.1875 88.5909 30.8807V29.9545C88.5152 30.0038 88.411 30.0492 88.2784 30.0909C88.1496 30.1288 88.0038 30.1648 87.8409 30.1989C87.678 30.2292 87.5152 30.2576 87.3523 30.2841C87.1894 30.3068 87.0417 30.3277 86.9091 30.3466C86.625 30.3883 86.3769 30.4545 86.1648 30.5455C85.9527 30.6364 85.7879 30.7595 85.6705 30.9148C85.553 31.0663 85.4943 31.2557 85.4943 31.483C85.4943 31.8125 85.6136 32.0644 85.8523 32.2386C86.0947 32.4091 86.4015 32.4943 86.7727 32.4943ZM94.054 37.2727C93.7472 37.2727 93.4593 37.2481 93.1903 37.1989C92.9252 37.1534 92.7055 37.0947 92.5312 37.0227L93.0767 35.2159C93.3608 35.303 93.6165 35.3504 93.8438 35.358C94.0748 35.3655 94.2737 35.3125 94.4403 35.1989C94.6108 35.0852 94.7491 34.892 94.8551 34.6193L94.9972 34.25L91.8665 25.2727H94.4119L96.2188 31.6818H96.3097L98.1335 25.2727H100.696L97.304 34.9432C97.1411 35.4129 96.9195 35.822 96.6392 36.1705C96.3627 36.5227 96.0123 36.7936 95.5881 36.983C95.1638 37.1761 94.6525 37.2727 94.054 37.2727Z" fill="#523E95"/>
</svg>
